<?xml version="1.0" encoding="utf-8"?>
<!-- Generator: Adobe Illustrator 19.2.1, SVG Export Plug-In . SVG Version: 6.00 Build 0)  -->
<svg version="1.1" id="layer" xmlns="http://www.w3.org/2000/svg" xmlns:xlink="http://www.w3.org/1999/xlink" x="0px" y="0px"
	 viewBox="0 0 652 652" style="enable-background:new 0 0 652 652;" xml:space="preserve">
<style type="text/css">
	.st0{fill:#ED1A3A;}
	.st1{fill:#405661;}
</style>
<g>
	<path class="st0" d="M99.9,348.2l-22.1-68.6c-3.1-10.5-8.4-13.4-16.6-13.4H20.1c3.2,1.3,5.4,9.7,5.4,9.7l19.9,68.9
		c2.3,8.7,9.4,13.2,17.6,13.2h43.6C103.4,357.4,99.9,348.2,99.9,348.2"/>
	<path class="st0" d="M165.6,348.2l22.1-68.6c3.1-10.5,8.4-13.4,16.6-13.4h41.1c-3.2,1.3-5.4,9.7-5.4,9.7l-19.9,68.9
		c-2.3,8.7-9.4,13.2-17.6,13.2H159C162.2,357.4,165.6,348.2,165.6,348.2"/>
	<rect x="108.7" y="266.7" class="st0" width="48.4" height="91.2"/>
	<path class="st1" d="M262.4,311.2c2.4-2.5,5.4-3.8,9.1-3.8c3.4,0,6.1,1.2,8.2,3.5c2.1,2.3,3.2,6.1,3.2,11.5H258
		C258.6,317.5,260.1,313.8,262.4,311.2 M301.7,344.9c-7.9,2.3-15.1,3.5-21.4,3.5c-4.9,0-8.9-0.7-11.8-2c-2.9-1.3-5.2-3.2-7-5.5
		c-1.7-2.3-2.8-5.5-3.2-9.5h43.6c-0.2-13.1-2.9-22.1-8.3-26.9c-5.4-4.8-12.5-7.2-21.5-7.2c-7.3,0-13.5,1.4-18.5,4.1
		c-5,2.7-8.8,6.4-11.4,11.1c-2.6,4.7-3.9,9.8-3.9,15.3c0,6,1.5,11.5,4.6,16.6c3.1,5.1,7.5,8.8,13.2,11.2c5.7,2.4,12.4,3.6,20,3.6
		c8,0,16.6-1.1,25.5-3.4V344.9z"/>
	<path class="st1" d="M309.2,356.1v-11.8c9.4,3.3,17.5,4.9,24.1,4.9c3.6,0,6.4-0.6,8.5-1.9c2.1-1.3,3.2-2.8,3.2-4.8
		c0-1.7-0.8-3.1-2.4-4.3c-1.6-1.1-4-2.2-7.3-3.3l-6.4-2.2c-6.6-2.2-11.5-4.7-14.7-7.4c-3.2-2.6-4.7-6.1-4.7-10.4
		c0-5.1,2.4-9.3,7.2-12.7c4.8-3.3,12.1-5,21.9-5c5.8,0,12.6,0.7,20.6,2.1v11.1c-7.7-2.1-14-3.1-19.1-3.1c-4,0-6.9,0.6-8.9,1.7
		c-2,1.1-3,2.6-3,4.4c0,1.4,0.6,2.7,1.9,3.8c1.2,1.1,3.5,2.1,6.8,3.1l5.5,1.8c9.1,2.9,15.1,5.8,17.9,8.5c2.8,2.8,4.2,6.1,4.2,9.9
		c0,5-2.6,9.4-7.7,13.1c-5.1,3.8-12.5,5.7-22.3,5.7C326.3,359.3,317.9,358.3,309.2,356.1"/>
	<path class="st1" d="M411,357.7c-4.5,1.1-8.1,1.7-10.7,1.7c-6.2,0-11-0.8-14.4-2.2c-3.4-1.5-6-3.5-7.7-6c-1.7-2.5-2.6-6.3-2.6-11.2
		v-31.2h-7.8v-10.1h7.8v-10.1l19-1.9v11.9h15.1v10.1h-15.1v29c0,4.3,0.9,7.1,2.7,8.6c1.8,1.5,4.4,2.2,7.9,2.2c1.6,0,3.6-0.2,5.8-0.7
		V357.7z"/>
	<path class="st1" d="M439.2,319.1c2.3-2.8,4.9-5,7.6-6.6c2.7-1.6,5.5-2.4,8.2-2.4c4.3,0,7.7,1.6,10.1,4.8c2.4,3.2,3.5,7.6,3.5,13.2
		c0,5.4-1.2,10.2-3.7,14.4c-2.5,4.2-6.2,6.3-11.3,6.3c-2.4,0-4.7-0.5-7-1.4c-2.3-0.9-4.8-2.6-7.4-5.1V319.1z M439.2,379.5v-27.7
		c2.6,2.2,4.8,3.7,6.8,4.7c1.9,0.9,4,1.6,6.1,2.1c2.1,0.5,4.4,0.7,6.9,0.7c9.4,0,16.7-3.1,22-9.3c5.2-6.2,7.9-14,7.9-23.3
		c0-8.8-2.4-15.9-7-21.3c-4.7-5.4-11.3-8.1-19.9-8.1c-5.2,0-9.6,1.1-13.4,3.2c-3.8,2.1-6.9,5.3-9.3,9.6v-11.5h-19v80.9H439.2z"/>
	<path class="st1" d="M527,347c-2.3,0.9-4.5,1.4-6.7,1.4c-2.5,0-4.6-0.7-6.5-2.2c-1.8-1.4-2.7-3.3-2.7-5.6c0-2.8,1.5-5,4.5-6.9
		c3-1.8,7.6-2.7,13.8-2.7h4.5V343C531.6,344.8,529.3,346.1,527,347 M534.7,351.6c1.4,3.1,3.3,5.2,5.9,6.2c2.5,1,5.6,1.5,9.1,1.5
		c3.1,0,6.7-0.5,10.7-1.5l-0.3-9c-1,0.1-1.9,0.2-2.6,0.2c-1.2,0-2.4-0.3-3.6-1.1c-1.2-0.7-1.8-2.7-1.8-5.9v-26.2
		c0-4.9-1.2-8.7-3.7-11.1c-2.5-2.5-5.8-4.3-9.9-5.5c-4.1-1.2-8.8-1.8-14-1.8c-8.5,0-17.1,1.4-25.7,4.1v11.1c7.6-3.5,15-5.3,22.3-5.3
		c3.7,0,6.7,0.6,9.1,1.9c2.4,1.3,3.6,3.7,3.6,7.3v5.3h-5.1c-12.7,0-21.9,2-27.6,5.9c-5.7,3.9-8.5,8.8-8.5,14.6
		c0,4.8,1.9,8.8,5.7,12.1c3.8,3.3,8.8,5,15.1,5c2.4,0,4.8-0.2,6.9-0.7c2.2-0.5,4.3-1.2,6.3-2.2c2-1,4.4-2.6,7.1-4.8H534.7z"/>
	<path class="st1" d="M620.1,356.7c-7.8,1.8-15.1,2.7-21.8,2.7c-12,0-20.9-3-27-9c-6-6-9-13.4-9-22.1c0-9.1,3.2-16.6,9.5-22.3
		c6.4-5.7,15.7-8.6,28.1-8.6c5.7,0,12.2,0.8,19.6,2.4v11.6c-7.6-2.1-13.7-3.2-18.3-3.2c-6.5,0-11.2,2.1-14.2,6.3
		c-3,4.2-4.5,8.8-4.5,13.8c0,3.9,0.9,7.5,2.6,10.8c1.7,3.3,4.1,5.8,7.2,7.3c3.1,1.5,6.6,2.3,10.4,2.3c5.6,0,11.3-1,17.3-2.9V356.7z"
		/>
</g>
</svg>
